<svg xmlns="http://www.w3.org/2000/svg" viewBox="0 0 568 201"><path d="M37.5613 148.719C61.3653 148.719 74.9053 124.042 74.9053 102.422V96.5257H67.9173C49.3547 96.5257 9.608 96.5257 9.608 124.915C9.608 136.49 18.9987 148.719 37.5613 148.719ZM67.6987 88.0083H74.9053V86.4803C74.9053 60.4923 65.9507 51.3203 43.2387 51.3203C37.5613 51.3203 18.9987 52.8483 18.9987 62.0203V69.4457H9.82667V59.4003C9.82667 46.515 34.504 42.803 43.4573 42.803C76.8707 42.803 84.0773 60.9283 84.0773 84.0777V141.512C84.0773 144.788 85.824 146.316 88.8813 146.316H98.272V154.615H87.5707C78.6173 154.615 74.9053 151.122 74.9053 141.294C74.9053 135.398 75.3413 131.467 75.3413 131.467H74.9053C75.1227 131.467 65.5147 157.236 37.124 157.236C19.436 157.236 0 147.41 0 125.571C0 88.4443 48.2613 88.0083 67.6987 88.0083Z" fill="currentColor"></path><path d="M192.612 98.2721C192.612 63.1121 176.015 51.7561 154.613 51.7561C131.247 51.7561 117.269 68.7907 117.269 98.2721C117.269 127.753 133.431 145.661 156.797 145.661C176.015 145.661 192.612 133.651 192.612 98.2721ZM154.613 42.8027C185.624 42.8027 192.175 63.1121 192.175 63.1121H192.612C192.612 63.1121 192.393 60.7107 192.393 58.0894C192.393 49.1361 196.107 45.4227 205.06 45.4227H215.761V53.7214H206.371C203.313 53.7214 201.565 55.2507 201.565 58.5267V153.96C201.565 187.373 177.544 200.476 151.556 200.476C139.545 200.476 127.971 197.419 117.269 191.959L121.637 183.879C121.637 183.879 135.177 191.523 150.901 191.523C174.268 191.523 192.393 180.384 192.393 153.96V142.385C192.393 137.363 192.831 133.432 192.831 133.432H192.393C185.843 146.753 174.268 154.615 156.141 154.615C127.752 154.615 107.661 132.34 107.661 98.2721C107.661 64.2041 126.223 42.8027 154.613 42.8027Z" fill="currentColor"></path><path d="M313.156 89.9737C312.064 63.331 296.122 51.3203 277.996 51.3203C257.906 51.3203 239.343 64.423 235.411 89.9737H313.156ZM278.215 42.803C307.915 42.803 322.766 66.1697 322.766 92.595C322.766 94.9977 322.328 98.491 322.328 98.491H234.756C234.756 130.156 256.158 148.282 281.49 148.282C302.455 148.282 315.34 134.524 315.34 134.524L320.363 142.168C320.363 142.168 305.075 157.236 281.49 157.236C250.698 157.236 225.147 134.962 225.147 100.238C225.147 63.331 250.262 42.803 278.215 42.803Z" fill="currentColor"></path><path d="M412.954 1.09088H427.368V19.8722H412.954V1.09088ZM348.094 57.2162H334.336V44.7682H348.094V40.8375C348.094 4.58554 373.645 0.000198843 385.874 0.000198843C390.024 0.000198843 392.645 0.436214 392.645 0.436214V13.7575C392.645 13.7575 390.461 13.3215 387.185 13.3215C378.886 13.3215 362.944 16.3789 362.944 40.8375V44.7682H414.92C424.31 44.7682 428.241 48.7002 428.241 58.0895V136.927C428.241 140.202 429.989 141.731 433.046 141.731H442.217V154.616H426.713C417.322 154.616 413.39 150.684 413.39 141.294V62.0202C413.39 58.9629 411.644 57.2162 408.586 57.2162H362.944V154.616H348.094V57.2162Z" fill="currentColor"></path><path d="M462.961 57.2164H448.548V44.7684H463.18V14.4124H477.811V44.7684H505.328V57.2164H477.811V113.123C477.811 138.891 494.189 142.167 502.489 142.167C505.545 142.167 507.512 141.731 507.512 141.731V155.052C507.512 155.052 504.891 155.49 501.179 155.49C488.512 155.49 462.961 151.339 462.961 114.651V57.2164Z" fill="currentColor"></path><path d="M540.897 28.5373C544.161 28.5373 546.259 26.4386 546.259 22.9413C546.259 19.5226 544.161 17.5786 540.897 17.5786H535.224V28.5373H540.897ZM530.871 17.5786H528.073V13.9266H541.675C547.036 13.9266 550.767 17.5013 550.767 22.9413C550.767 27.4493 547.892 30.2479 545.093 30.9466V31.1026C545.093 31.1026 545.949 31.4133 546.648 32.7346L550.147 39.7293C550.612 40.6613 551.467 40.7386 552.244 40.7386H553.021V44.2359H550.767C548.513 44.2359 547.503 44.0039 546.416 41.9053L542.219 33.6666C541.441 32.1906 540.743 31.9573 539.421 31.9573H535.224V44.2359H530.871V17.5786ZM540.041 53.1746C553.255 53.1746 563.359 42.6826 563.359 29.0813C563.359 15.6359 553.255 5.0666 540.041 5.0666C527.141 5.0666 517.193 15.6359 517.193 29.0813C517.193 42.6826 527.141 53.1746 540.041 53.1746ZM540.041 0.870604C555.508 0.870604 567.865 13.3826 567.865 29.0813C567.865 44.9359 555.508 57.3706 540.041 57.3706C524.888 57.3706 512.608 44.9359 512.608 29.0813C512.608 13.3826 524.888 0.870604 540.041 0.870604Z" fill="currentColor"></path></svg>